# xmcd
#
# Track frame offsets: 
#        150
#        11699
#        28941
#        43780
#        59970
#        70573
#        89639
#        107380
#        125425
#        138996
#        151955
#        166634
#        179043
#        196915
#        209039
#        221212
#        235437
#        250149
#        260267
#        273296
#        287450
#
# Disc length: 4061 seconds
#
# Revision: 0
# Processed by: cddbd v1.5.2PL0 Copyright (c) Steve Scherf et al.
# Submitted via: ExactAudioCopy v1.3
#
DISCID=3e0fdb15
DTITLE=Various Artist - Best of Woodstock der Blasmusik 09
DYEAR=2019
DGENRE=Blasmusik
TTITLE0=Machlast - Woodstock der Blasmusik Marsch
TTITLE1=Die Innsbrucker Böhmischen - Ein Liebesbrief
TTITLE2=Viera Blech - Pezi und Woidl
TTITLE3=Ernst Hutter and Die Egerländer Musikanten - Gloria Patri
TTITLE4=Canadian Brass - Sabre Dance (Säbeltanz)
TTITLE5=Kaiser Musikanten - Im Eilschritt nach Sankt Peter
TTITLE6=Echt Böhmisch - Meine große Liebe
TTITLE7=Weinviertler Mährische Musikanten - Gruß ans Weinviertel
TTITLE8=Alpenblech - Walzer für Mama
TTITLE9=Wendi´s Böhmische Blasmusik - Kannst du Knödel kochen
TTITLE10=Weinberger Böhmische - Marzo di fiore
TTITLE11=Faltenradio - An Schiasl zum 30er
TTITLE12=Eine kleine Dorfmusik - Im Garten der Zeit
TTITLE13=Die Hopfenmusig - Partschinser Leben
TTITLE14=Rotofenmusi - Fetzn Böhm (7er)
TTITLE15=Blaskapelle Blecharanka - Pro Sieben
TTITLE16=Tegernseer Tanzlmusi - Stammtisch Polka
TTITLE17=Jörg Bollin und das mährische Feuer - Auf zum Winzerfest
TTITLE18=Ebbser Kaiserklang - Boarisch gmüatlich
TTITLE19=Saso Avsenik and seine Oberkrainer - Der stärkste Mann
TTITLE20=Anton Gäulle und seine Scherzachtaler Blasmusik - Blasmusikgr
TTITLE20=üße
EXTD=
EXTT0=
EXTT1=
EXTT2=
EXTT3=
EXTT4=
EXTT5=
EXTT6=
EXTT7=
EXTT8=
EXTT9=
EXTT10=
EXTT11=
EXTT12=
EXTT13=
EXTT14=
EXTT15=
EXTT16=
EXTT17=
EXTT18=
EXTT19=
EXTT20=
PLAYORDER=
